<?xml version="1.0" encoding="UTF-8"?>
<svg id="Layer_1" data-name="Layer 1" xmlns="http://www.w3.org/2000/svg" version="1.1" xmlns:xlink="http://www.w3.org/1999/xlink" viewBox="0 0 1366 768">
  <defs>
    <style>
      .cls-1 {
        isolation: isolate;
      }

      .cls-2 {
        fill: none;
        stroke: #fff;
        stroke-miterlimit: 10;
        stroke-width: 17px;
      }

      .cls-3 {
        fill: #fff;
        stroke-width: 0px;
      }
    </style>
  </defs>
  <g id="AMALTHEA">
    <image id="image" class="cls-1" width="884" height="316" transform="translate(242 222)" xlink:href="amalthea-1.png"/>
  </g>
  <g id="AMALTHEA-2">
    <image id="image-2" data-name="image" class="cls-1" width="884" height="316" transform="translate(241 226)" xlink:href="amalthea-2.png"/>
  </g>
  <image id="AMALTHEA-3" class="cls-1" width="450" height="161" transform="translate(458 354)" xlink:href="amalthea-3.png"/>
  <g>
    <g>
      <g>
        <path class="cls-3" d="M391.5,410.8l27-61.7h20.5l27,61.7h-21.5l-19.9-51.8h8.1l-19.9,51.8h-21.2ZM407.6,400l5.3-15h28.4l5.3,15h-39Z"/>
        <path class="cls-3" d="M555.3,410.8l27-61.7h20.5l27,61.7h-21.5l-19.9-51.8h8.1l-19.9,51.8h-21.2ZM571.4,400l5.3-15h28.4l5.3,15h-39Z"/>
        <path class="cls-3" d="M637.4,410.8v-61.7h20.8v45.6h27.9v16.1h-48.7Z"/>
        <path class="cls-3" d="M709.6,410.8v-45.6h-18.1v-16.1h57v16.1h-18.1v45.6h-20.8Z"/>
        <path class="cls-3" d="M779,410.8h-20.8v-61.7h20.8v61.7ZM799.6,388h-22v-17.1h22v17.1ZM798.2,349.1h20.8v61.7h-20.8v-61.7Z"/>
        <path class="cls-3" d="M853.8,395.1h30.9v15.7h-51.3v-61.7h50.2v15.7h-29.7v30.3ZM852.4,372h27.5v15h-27.5v-15Z"/>
        <path class="cls-3" d="M890.3,410.8l27-61.7h20.5l27,61.7h-21.5l-19.9-51.8h8.1l-19.9,51.8h-21.2ZM906.4,400l5.3-15h28.4l5.3,15h-39Z"/>
      </g>
      <path class="cls-2" d="M541.9,357.1v44.1c0,1.8-1.5,3-2.7,2.1l-28.6-22c-.1,0-.2-.2-.3-.3,0,.1-.2.2-.3.3l-28.6,22c-1.2.9-2.7-.2-2.7-2.1v-44.1c0-1.8,1.5-3,2.7-2.1l28.6,22c.1,0,.2.2.3.3,0-.1.2-.2.3-.3l28.6-22c1.2-.9,2.7.2,2.7,2.1Z"/>
    </g>
    <g>
      <path class="cls-3" d="M516.2,424.6c2.3,0,4.3.5,6,1.4,1.7.9,3,2.3,3.8,4.2s1.3,4.1,1.3,6.7-.5,5.3-1.6,7.3c-1.1,2-2.6,3.5-4.5,4.5-1.9,1-4.1,1.6-6.6,1.6s-2.6-.1-3.8-.4-2.3-.7-3.1-1.3l2.1-4.2c.7.5,1.4.8,2.2,1,.8.2,1.6.3,2.5.3,2.1,0,3.8-.7,5.1-2,1.3-1.3,1.9-3.2,1.9-5.8s0-.9,0-1.4,0-1-.2-1.6l1.6,1.5c-.4.9-1,1.7-1.7,2.3-.7.6-1.6,1.1-2.6,1.4-1,.3-2.1.5-3.3.5s-3-.3-4.3-1c-1.3-.6-2.3-1.5-3.1-2.7-.8-1.2-1.2-2.5-1.2-4.1s.4-3.1,1.3-4.4,2-2.2,3.4-2.9c1.4-.7,3-1,4.7-1ZM516.5,428.9c-.8,0-1.6.1-2.2.4-.6.3-1.1.7-1.5,1.3-.3.6-.5,1.2-.5,2,0,1.1.4,2,1.2,2.7.8.7,1.8,1,3.1,1s1.6-.2,2.2-.5c.6-.3,1.1-.8,1.5-1.3.4-.6.5-1.2.5-1.9s-.2-1.3-.5-1.9c-.3-.6-.8-1-1.5-1.3-.7-.3-1.4-.5-2.4-.5Z"/>
      <path class="cls-3" d="M532.3,442.2v-4.4h10.1v4.4h-10.1Z"/>
      <path class="cls-3" d="M551.1,449.9v-22.8l2.5,2.5h-7.5v-4.6h10.7v24.9h-5.8Z"/>
      <path class="cls-3" d="M573.6,450.4c-2,0-3.9-.5-5.5-1.5-1.6-1-2.9-2.5-3.8-4.4-.9-1.9-1.4-4.2-1.4-7s.5-5.1,1.4-7c.9-1.9,2.2-3.4,3.8-4.4,1.6-1,3.4-1.5,5.5-1.5s3.9.5,5.5,1.5c1.6,1,2.9,2.5,3.8,4.4.9,1.9,1.4,4.2,1.4,7s-.5,5.1-1.4,7c-.9,1.9-2.2,3.4-3.8,4.4-1.6,1-3.4,1.5-5.5,1.5ZM573.6,445.5c1,0,1.8-.3,2.5-.8.7-.6,1.3-1.4,1.7-2.6.4-1.2.6-2.7.6-4.6s-.2-3.4-.6-4.6c-.4-1.2-1-2.1-1.7-2.6-.7-.6-1.6-.8-2.5-.8s-1.8.3-2.5.8c-.7.6-1.3,1.4-1.7,2.6-.4,1.2-.6,2.7-.6,4.6s.2,3.4.6,4.6c.4,1.2,1,2.1,1.7,2.6.7.6,1.6.8,2.5.8Z"/>
      <path class="cls-3" d="M587.7,435.5v-4.3h13.3v4.3h-13.3ZM597.8,450.2c-2.3,0-4-.6-5.3-1.7-1.3-1.1-1.9-2.9-1.9-5.1v-16.8h5.6v16.7c0,.8.2,1.4.6,1.9.4.5,1,.7,1.7.7s1.7-.2,2.3-.7l1.5,3.9c-.5.4-1.2.7-2,.9s-1.6.3-2.5.3Z"/>
      <path class="cls-3" d="M618.8,430.5c1.5,0,2.9.3,4.1.9,1.2.6,2.1,1.5,2.8,2.8.7,1.2,1,2.8,1,4.8v10.9h-5.5v-10.1c0-1.5-.3-2.7-1-3.4s-1.6-1.1-2.9-1.1-1.7.2-2.4.6c-.7.4-1.2.9-1.6,1.7s-.6,1.7-.6,2.9v9.5h-5.5v-26.4h5.5v12.5l-1.2-1.6c.7-1.3,1.7-2.3,3-3,1.3-.7,2.7-1,4.4-1Z"/>
      <path class="cls-3" d="M645.7,449.9v-24.9h4.8l14.7,17.9h-2.3v-17.9h5.7v24.9h-4.8l-14.7-17.9h2.3v17.9h-5.7Z"/>
      <path class="cls-3" d="M684.8,450.2c-2,0-3.8-.4-5.4-1.3-1.6-.9-2.8-2-3.7-3.5-.9-1.5-1.4-3.2-1.4-5.1s.5-3.6,1.4-5.1c.9-1.5,2.1-2.6,3.7-3.5s3.4-1.3,5.4-1.3,3.9.4,5.4,1.3c1.6.8,2.8,2,3.7,3.5.9,1.5,1.4,3.2,1.4,5.1s-.5,3.6-1.4,5.1c-.9,1.5-2.1,2.6-3.7,3.5-1.6.9-3.4,1.3-5.4,1.3ZM684.8,445.7c.9,0,1.8-.2,2.5-.6.7-.4,1.3-1,1.7-1.8.4-.8.7-1.8.7-2.8s-.2-2.1-.7-2.8c-.4-.8-1-1.4-1.7-1.8-.7-.4-1.5-.6-2.5-.6s-1.8.2-2.5.6c-.7.4-1.3,1-1.8,1.8-.4.8-.7,1.7-.7,2.8s.2,2,.7,2.8c.4.8,1,1.4,1.8,1.8.7.4,1.6.6,2.5.6Z"/>
      <path class="cls-3" d="M706,449.9l-8-19.1h5.7l6.7,16.5h-2.8l7-16.5h5.3l-8.1,19.1h-5.7Z"/>
      <path class="cls-3" d="M733.3,450.2c-2.2,0-4.1-.4-5.7-1.3-1.6-.9-2.9-2-3.8-3.5-.9-1.5-1.4-3.2-1.4-5.1s.4-3.6,1.3-5.1c.9-1.5,2.1-2.7,3.6-3.5,1.6-.8,3.3-1.3,5.2-1.3s3.6.4,5.1,1.2c1.5.8,2.7,1.9,3.6,3.4.9,1.5,1.3,3.2,1.3,5.3s0,.5,0,.7c0,.3,0,.5,0,.8h-15.5v-3.2h12.6l-2.2,1c0-1-.2-1.9-.6-2.6-.4-.7-1-1.3-1.7-1.7s-1.5-.6-2.5-.6-1.8.2-2.5.6c-.7.4-1.3,1-1.7,1.7-.4.7-.6,1.6-.6,2.6v.9c0,1.1.2,2,.7,2.8.5.8,1.1,1.4,2,1.8.8.4,1.8.6,3,.6s1.9-.2,2.6-.5c.8-.3,1.5-.8,2.1-1.4l3,3.2c-.9,1-2,1.8-3.3,2.3s-2.9.8-4.6.8Z"/>
      <path class="cls-3" d="M772.5,430.5c1.5,0,2.9.3,4,.9,1.2.6,2.1,1.5,2.8,2.8.7,1.2,1,2.8,1,4.8v10.9h-5.5v-10.1c0-1.5-.3-2.7-.9-3.4s-1.5-1.1-2.6-1.1-1.6.2-2.2.6c-.6.4-1.1.9-1.5,1.6-.3.7-.5,1.7-.5,2.8v9.6h-5.5v-10.1c0-1.5-.3-2.7-.9-3.4s-1.5-1.1-2.7-1.1-1.5.2-2.2.6-1.1.9-1.5,1.6c-.4.7-.5,1.7-.5,2.8v9.6h-5.5v-19.1h5.3v5.2l-1-1.5c.6-1.3,1.6-2.3,2.8-3,1.2-.7,2.6-1,4.2-1s3.3.4,4.6,1.3c1.3.9,2.2,2.2,2.6,4.1l-2-.5c.6-1.5,1.7-2.6,3.1-3.5,1.4-.9,3-1.3,4.9-1.3Z"/>
      <path class="cls-3" d="M787,449.9v-26.4h5.5v11.1l-.4,5.7v5.7c.1,0,.1,3.9.1,3.9h-5.3ZM798.3,450.2c-1.6,0-3.1-.3-4.3-1-1.2-.7-2.2-1.8-2.8-3.3s-1-3.3-1-5.5.3-4.1,1-5.5c.7-1.4,1.6-2.5,2.8-3.2,1.2-.7,2.6-1.1,4.2-1.1s3.5.4,4.9,1.2c1.4.8,2.6,2,3.4,3.4.8,1.5,1.3,3.2,1.3,5.2s-.4,3.7-1.3,5.2c-.8,1.5-2,2.6-3.4,3.4-1.4.8-3.1,1.2-4.9,1.2ZM797.3,445.7c.9,0,1.7-.2,2.5-.6.7-.4,1.3-1,1.7-1.8.4-.8.7-1.8.7-2.8s-.2-2.1-.7-2.8c-.4-.8-1-1.4-1.7-1.8-.7-.4-1.5-.6-2.5-.6s-1.8.2-2.5.6c-.7.4-1.3,1-1.8,1.8-.4.8-.7,1.7-.7,2.8s.2,2,.7,2.8c.4.8,1,1.4,1.8,1.8.7.4,1.6.6,2.5.6Z"/>
      <path class="cls-3" d="M822.8,450.2c-2.2,0-4.1-.4-5.7-1.3-1.6-.9-2.9-2-3.8-3.5-.9-1.5-1.4-3.2-1.4-5.1s.4-3.6,1.3-5.1c.9-1.5,2.1-2.7,3.6-3.5,1.6-.8,3.3-1.3,5.2-1.3s3.6.4,5.1,1.2c1.5.8,2.7,1.9,3.6,3.4.9,1.5,1.3,3.2,1.3,5.3s0,.5,0,.7c0,.3,0,.5,0,.8h-15.5v-3.2h12.6l-2.2,1c0-1-.2-1.9-.6-2.6-.4-.7-1-1.3-1.7-1.7s-1.5-.6-2.5-.6-1.8.2-2.5.6c-.7.4-1.3,1-1.7,1.7-.4.7-.6,1.6-.6,2.6v.9c0,1.1.2,2,.7,2.8.5.8,1.1,1.4,2,1.8.8.4,1.8.6,3,.6s1.9-.2,2.6-.5c.8-.3,1.5-.8,2.1-1.4l3,3.2c-.9,1-2,1.8-3.3,2.3s-2.9.8-4.6.8Z"/>
      <path class="cls-3" d="M837.4,449.9v-19.1h5.3v5.4l-.7-1.6c.6-1.4,1.5-2.4,2.7-3.1,1.3-.7,2.8-1,4.6-1v5.2c-.2,0-.4,0-.6-.1-.2,0-.4,0-.6,0-1.6,0-2.8.4-3.7,1.3-.9.9-1.4,2.2-1.4,4.1v9h-5.5Z"/>
    </g>
  </g>
</svg>